Normalized EMG Linear Envelopes
nRows=262
nColumns=4

endheader
time	 med_gas_r	  soleus_r	 tib_ant_r	
5.92137	  0.063665	  0.260527	  0.057381	
5.95464	  0.063807	  0.261516	  0.057071	
5.9879	  0.062834	  0.261304	  0.056963	
6.02117	  0.061323	  0.259327	  0.057043	
6.05444	  0.059859	  0.255272	  0.057234	
6.0877	  0.058773	  0.250302	  0.057581	
6.12097	  0.058224	  0.246593	  0.058114	
6.15423	  0.057939	  0.245242	  0.058628	
6.1875	  0.057512	  0.245170	  0.059159	
6.22077	  0.056345	  0.244891	  0.059833	
6.25403	  0.054591	  0.244316	  0.060695	
6.2873	  0.052790	  0.243771	  0.061865	
6.32056	  0.051232	  0.243129	  0.063298	
6.35383	  0.050066	  0.242238	  0.064776	
6.3871	  0.049256	  0.241655	  0.065867	
6.42036	  0.048566	  0.241419	  0.066223	
6.45363	  0.047620	  0.241284	  0.065912	
6.4869	  0.046301	  0.241460	  0.064990	
6.52016	  0.044624	  0.242483	  0.063683	
6.55343	  0.043074	  0.244530	  0.062267	
6.58669	  0.042198	  0.247236	  0.060740	
6.61996	  0.042181	  0.250291	  0.059009	
6.65323	  0.042892	  0.254017	  0.057318	
6.68649	  0.044106	  0.258331	  0.055868	
6.71976	  0.045489	  0.262402	  0.054748	
6.75302	  0.046470	  0.265101	  0.054069	
6.78629	  0.047009	  0.267243	  0.053796	
6.81956	  0.047463	  0.268914	  0.053824	
6.85282	  0.048061	  0.268462	  0.054023	
6.88609	  0.048954	  0.264544	  0.054327	
6.91935	  0.050144	  0.258068	  0.054659	
6.95262	  0.051417	  0.251752	  0.054942	
6.98589	  0.052150	  0.247239	  0.055283	
7.01915	  0.052001	  0.245322	  0.055792	
7.05242	  0.051332	  0.245762	  0.056484	
7.08569	  0.050805	  0.247584	  0.057224	
7.11895	  0.050843	  0.249521	  0.057919	
7.15222	  0.051371	  0.250265	  0.058617	
7.18548	  0.051989	  0.249030	  0.059428	
7.21875	  0.052139	  0.246414	  0.060341	
7.25202	  0.051505	  0.244240	  0.061157	
7.28528	  0.050760	  0.243730	  0.061690	
7.31855	  0.050447	  0.245183	  0.061885	
7.35181	  0.050726	  0.248213	  0.061705	
7.38508	  0.051404	  0.252231	  0.061127	
7.41835	  0.051935	  0.256487	  0.060195	
7.45161	  0.051634	  0.260499	  0.058879	
7.48488	  0.050670	  0.264280	  0.057314	
7.51815	  0.049966	  0.268148	  0.055706	
7.55141	  0.050309	  0.271468	  0.054133	
7.58468	  0.051969	  0.272520	  0.052714	
7.61794	  0.054664	  0.269859	  0.051613	
7.65121	  0.057599	  0.264701	  0.050952	
7.68448	  0.059760	  0.258598	  0.050814	
7.71774	  0.060877	  0.252665	  0.051159	
7.75101	  0.061459	  0.247589	  0.051948	
7.78427	  0.061874	  0.243784	  0.053099	
7.81754	  0.062275	  0.242415	  0.054425	
7.85081	  0.062472	  0.243927	  0.055700	
7.88407	  0.061778	  0.247456	  0.056734	
7.91734	  0.060068	  0.251510	  0.057378	
7.9506	  0.058124	  0.255494	  0.057649	
7.98387	  0.056774	  0.259263	  0.057700	
8.01714	  0.056456	  0.262142	  0.057618	
8.0504	  0.056969	  0.263412	  0.057516	
8.08367	  0.057698	  0.262791	  0.057350	
8.11694	  0.058612	  0.260378	  0.056980	
8.1502	  0.060152	  0.256247	  0.056482	
8.18347	  0.062355	  0.250696	  0.056265	
8.21673	  0.064687	  0.245658	  0.056593	
8.25	  0.066584	  0.243662	  0.057465	
8.28327	  0.068489	  0.245566	  0.058647	
8.31653	  0.070596	  0.250680	  0.059705	
8.3498	  0.072610	  0.258593	  0.060330	
8.38306	  0.073926	  0.269071	  0.060342	
8.41633	  0.074514	  0.281913	  0.059868	
8.4496	  0.074767	  0.297144	  0.059084	
8.48286	  0.075040	  0.314931	  0.058056	
8.51613	  0.075401	  0.334383	  0.056893	
8.5494	  0.075638	  0.353530	  0.055916	
8.58266	  0.075978	  0.370250	  0.055467	
8.61593	  0.076825	  0.381498	  0.055801	
8.64919	  0.078046	  0.380885	  0.057260	
8.68246	  0.078859	  0.367844	  0.060087	
8.71573	  0.079257	  0.348497	  0.064229	
8.74899	  0.079428	  0.328022	  0.069503	
8.78226	  0.079243	  0.309129	  0.075440	
8.81552	  0.078532	  0.292146	  0.081051	
8.84879	  0.077304	  0.277529	  0.084878	
8.88206	  0.075876	  0.266669	  0.086030	
8.91532	  0.074554	  0.259700	  0.085524	
8.94859	  0.073529	  0.256405	  0.084834	
8.98185	  0.072753	  0.256293	  0.084862	
9.01512	  0.072246	  0.258060	  0.085732	
9.04839	  0.072382	  0.261077	  0.086865	
9.08165	  0.073050	  0.265287	  0.087170	
9.11492	  0.074110	  0.270659	  0.086437	
9.14819	  0.075233	  0.277298	  0.085284	
9.18145	  0.076015	  0.284322	  0.083811	
9.21472	  0.075878	  0.290117	  0.081608	
9.24798	  0.074914	  0.293553	  0.078152	
9.28125	  0.073501	  0.293492	  0.074014	
9.31452	  0.072186	  0.288867	  0.069941	
9.34778	  0.071711	  0.280296	  0.066272	
9.38105	  0.072023	  0.270208	  0.063202	
9.41431	  0.072405	  0.260978	  0.060727	
9.44758	  0.072633	  0.253304	  0.058765	
9.48085	  0.072851	  0.247972	  0.057319	
9.51411	  0.073330	  0.244727	  0.056357	
9.54738	  0.073936	  0.241853	  0.055665	
9.58065	  0.073937	  0.238342	  0.055072	
9.61391	  0.072829	  0.234378	  0.054683	
9.64718	  0.071165	  0.230954	  0.054686	
9.68044	  0.069869	  0.229121	  0.055244	
9.71371	  0.069623	  0.229030	  0.056228	
9.74698	  0.070666	  0.229965	  0.057387	
9.78024	  0.072737	  0.231035	  0.058584	
9.81351	  0.075202	  0.232270	  0.059636	
9.84677	  0.077863	  0.235021	  0.060467	
9.88004	  0.080393	  0.240366	  0.061082	
9.91331	  0.082755	  0.247950	  0.061465	
9.94657	  0.084999	  0.256261	  0.061589	
9.97984	  0.086615	  0.263894	  0.061334	
10.0131	  0.087168	  0.270872	  0.060739	
10.0464	  0.086516	  0.276994	  0.059955	
10.0796	  0.084702	  0.281786	  0.059133	
10.1129	  0.081844	  0.285113	  0.058379	
10.1462	  0.078487	  0.286826	  0.057746	
10.1794	  0.074969	  0.286609	  0.057213	
10.2127	  0.071710	  0.284454	  0.056811	
10.246	  0.069381	  0.280985	  0.056542	
10.2792	  0.067987	  0.276013	  0.056433	
10.3125	  0.066854	  0.269675	  0.056321	
10.3458	  0.065509	  0.262534	  0.056031	
10.379	  0.064075	  0.256004	  0.055558	
10.4123	  0.063282	  0.250552	  0.055140	
10.4456	  0.063658	  0.246494	  0.055001	
10.4788	  0.064920	  0.243422	  0.055155	
10.5121	  0.066052	  0.240473	  0.055630	
10.5454	  0.066573	  0.236593	  0.056391	
10.5786	  0.066854	  0.231703	  0.057357	
10.6119	  0.067320	  0.226991	  0.058309	
10.6452	  0.068111	  0.223199	  0.058898	
10.6784	  0.068947	  0.220863	  0.059021	
10.7117	  0.069762	  0.220085	  0.058749	
10.745	  0.070904	  0.221243	  0.058071	
10.7782	  0.072459	  0.224929	  0.057090	
10.8115	  0.074026	  0.231601	  0.055952	
10.8448	  0.074822	  0.240565	  0.054779	
10.878	  0.074865	  0.250356	  0.053808	
10.9113	  0.074698	  0.259300	  0.053195	
10.9446	  0.074865	  0.266287	  0.052890	
10.9778	  0.075428	  0.269448	  0.052819	
11.0111	  0.076222	  0.268005	  0.053067	
11.0444	  0.077261	  0.262586	  0.053629	
11.0776	  0.079327	  0.254149	  0.054309	
11.1109	  0.082863	  0.244412	  0.055065	
11.1442	  0.087270	  0.236183	  0.055933	
11.1774	  0.091105	  0.232069	  0.056732	
11.2107	  0.093362	  0.233375	  0.057119	
11.244	  0.094545	  0.240764	  0.057124	
11.2772	  0.095649	  0.253747	  0.057108	
11.3105	  0.096690	  0.270308	  0.057105	
11.3437	  0.097397	  0.287451	  0.057071	
11.377	  0.097791	  0.302192	  0.056958	
11.4103	  0.097604	  0.313294	  0.056579	
11.4435	  0.096877	  0.320270	  0.055918	
11.4768	  0.095918	  0.322380	  0.055480	
11.5101	  0.095140	  0.319990	  0.055967	
11.5433	  0.094991	  0.315155	  0.057741	
11.5766	  0.095334	  0.308967	  0.060849	
11.6099	  0.096196	  0.300954	  0.065216	
11.6431	  0.097203	  0.292104	  0.070704	
11.6764	  0.097761	  0.283363	  0.077575	
11.7097	  0.097676	  0.275329	  0.086096	
11.7429	  0.097025	  0.268209	  0.095755	
11.7762	  0.096277	  0.262246	  0.104951	
11.8095	  0.096131	  0.258636	  0.111150	
11.8427	  0.096696	  0.258176	  0.111511	
11.876	  0.097322	  0.260419	  0.105920	
11.9093	  0.097216	  0.264243	  0.097124	
11.9425	  0.096433	  0.268937	  0.087679	
11.9758	  0.095531	  0.273438	  0.079330	
12.0091	  0.094715	  0.277562	  0.072938	
12.0423	  0.094030	  0.282028	  0.068880	
12.0756	  0.093762	  0.286110	  0.067157	
12.1089	  0.094076	  0.288525	  0.067754	
12.1421	  0.094815	  0.288839	  0.070698	
12.1754	  0.095757	  0.287213	  0.075778	
12.2087	  0.096911	  0.284212	  0.082479	
12.2419	  0.098063	  0.281384	  0.090156	
12.2752	  0.098473	  0.279528	  0.097584	
12.3085	  0.097907	  0.278158	  0.102599	
12.3417	  0.097503	  0.277641	  0.103307	
12.375	  0.097513	  0.279093	  0.101318	
12.4083	  0.097520	  0.283098	  0.098917	
12.4415	  0.097616	  0.289168	  0.097473	
12.4748	  0.098663	  0.295886	  0.097668	
12.5081	  0.100600	  0.301994	  0.099710	
12.5413	  0.102576	  0.307291	  0.103853	
12.5746	  0.104363	  0.311007	  0.109406	
12.6079	  0.105818	  0.311670	  0.114320	
12.6411	  0.107134	  0.308632	  0.115198	
12.6744	  0.108382	  0.303521	  0.109643	
12.7077	  0.109208	  0.297473	  0.100269	
12.7409	  0.109001	  0.290694	  0.090109	
12.7742	  0.108304	  0.284001	  0.081077	
12.8075	  0.108102	  0.278175	  0.074133	
12.8407	  0.108958	  0.274103	  0.070155	
12.874	  0.110559	  0.272077	  0.069578	
12.9073	  0.112545	  0.272449	  0.072211	
12.9405	  0.114892	  0.275232	  0.077511	
12.9738	  0.117314	  0.281019	  0.085031	
13.0071	  0.119487	  0.289622	  0.094194	
13.0403	  0.120761	  0.299331	  0.103618	
13.0736	  0.121213	  0.308297	  0.110859	
13.1069	  0.121633	  0.314210	  0.112921	
13.1401	  0.122521	  0.317379	  0.110043	
13.1734	  0.123449	  0.319225	  0.104806	
13.2067	  0.124324	  0.320105	  0.098780	
13.2399	  0.125019	  0.320813	  0.092831	
13.2732	  0.125199	  0.321147	  0.087444	
13.3065	  0.125424	  0.319748	  0.082758	
13.3397	  0.126172	  0.316787	  0.078932	
13.373	  0.127665	  0.313506	  0.076112	
13.4062	  0.129598	  0.309871	  0.074437	
13.4395	  0.131146	  0.306403	  0.073514	
13.4728	  0.131275	  0.304539	  0.072784	
13.506	  0.130145	  0.304331	  0.072145	
13.5393	  0.128561	  0.305146	  0.071481	
13.5726	  0.127220	  0.307011	  0.070830	
13.6058	  0.125963	  0.308352	  0.070260	
13.6391	  0.123825	  0.307001	  0.069994	
13.6724	  0.119915	  0.302921	  0.069917	
13.7056	  0.115298	  0.297485	  0.069870	
13.7389	  0.111655	  0.291672	  0.069746	
13.7722	  0.110163	  0.286242	  0.069744	
13.8054	  0.111053	  0.281917	  0.070337	
13.8387	  0.113325	  0.279046	  0.071631	
13.872	  0.115911	  0.279095	  0.073193	
13.9052	  0.118146	  0.282594	  0.074701	
13.9385	  0.119465	  0.288508	  0.075987	
13.9718	  0.119292	  0.294098	  0.077010	
14.005	  0.118199	  0.296327	  0.077804	
14.0383	  0.116759	  0.294987	  0.078135	
14.0716	  0.114486	  0.291445	  0.077844	
14.1048	  0.111111	  0.286560	  0.077006	
14.1381	  0.107748	  0.281273	  0.075920	
14.1714	  0.104961	  0.276525	  0.074627	
14.2046	  0.102722	  0.271945	  0.072741	
14.2379	  0.100458	  0.267912	  0.070553	
14.2712	  0.097627	  0.264878	  0.068716	
14.3044	  0.094194	  0.262755	  0.067559	
14.3377	  0.090874	  0.261778	  0.067067	
14.371	  0.088063	  0.262415	  0.066795	
14.4042	  0.085814	  0.263769	  0.066020	
14.4375	  0.084578	  0.264713	  0.064855	
14.4708	  0.084792	  0.265116	  0.063833	
14.504	  0.086095	  0.265088	  0.063070	
14.5373	  0.087532	  0.265457	  0.062572	
14.5706	  0.088416	  0.266969	  0.062366	
14.6038	  0.088642	  0.269776	  0.062565	
